<svg width="188" height="12" viewBox="0 0 188 12" fill="none" xmlns="http://www.w3.org/2000/svg">
<path d="M3.2257 4.50329L0.514826 0.666264H2.47309L4.31444 3.41105L6.1704 0.666264H8.11405L5.39586 4.50329L8.25288 8.51054H6.30923L4.31444 5.57426L2.32695 8.51054H0.383301L3.2257 4.50329Z" fill="white"/>
<path d="M8.44286 0.666264H10.3134L11.9575 5.11325C12.2059 5.74684 12.3716 6.34261 12.4544 6.90055H12.5128C12.5567 6.64049 12.637 6.32606 12.754 5.95725C12.8709 5.58371 13.4895 3.82005 14.6099 0.666264H16.4659L13.0097 9.55313C12.3813 11.1844 11.334 12 9.86772 12C9.48775 12 9.11754 11.9598 8.75706 11.8795V10.5603C9.01524 10.617 9.30995 10.6454 9.6412 10.6454C10.4693 10.6454 11.0514 10.1796 11.3876 9.24816L11.6871 8.51054L8.44286 0.666264Z" fill="white"/>
<path d="M25.4461 11.2837H23.8459V8.51054H18.3072V11.2837H16.7216V7.21971H17.3793C17.9541 6.42063 18.4095 5.45605 18.7457 4.32598C19.0866 3.19118 19.2888 1.97128 19.3521 0.666264H24.2624V7.21971H25.4461V11.2837ZM22.5745 7.21971V1.94291H20.8354C20.7429 2.91694 20.548 3.87679 20.2509 4.82245C19.9586 5.76812 19.6006 6.5672 19.1768 7.21971H22.5745Z" fill="white"/>
<path d="M34.1122 4.57422C34.1122 5.85559 33.7736 6.85563 33.0965 7.57434C32.4194 8.29304 31.4768 8.65239 30.2687 8.65239C29.5137 8.65239 28.8463 8.4869 28.2666 8.15592C27.6869 7.82494 27.2412 7.34974 26.9294 6.73033C26.6177 6.11092 26.4618 5.39222 26.4618 4.57422C26.4618 3.3023 26.7979 2.30935 27.4701 1.59538C28.1424 0.881402 29.0899 0.524414 30.3125 0.524414C31.4817 0.524414 32.4072 0.890858 33.0892 1.62375C33.7712 2.35191 34.1122 3.3354 34.1122 4.57422ZM28.2301 4.57422C28.2301 6.38516 28.9194 7.29064 30.2979 7.29064C31.6619 7.29064 32.3439 6.38516 32.3439 4.57422C32.3439 2.78219 31.657 1.88617 30.2833 1.88617C29.5624 1.88617 29.0387 2.11786 28.7123 2.58123C28.3908 3.04461 28.2301 3.70894 28.2301 4.57422Z" fill="white"/>
<path d="M40.0746 4.47492V0.666264H41.6749V4.47492L44.7876 0.666264H46.5997L43.4212 4.46074L46.8847 8.51054H44.9922L41.6749 4.53166V8.51054H40.0746V4.53166L36.7646 8.51054H34.8794L38.3356 4.46074L35.1644 0.666264H36.9765L40.0746 4.47492Z" fill="white"/>
<path d="M51.6634 8.65239C50.4066 8.65239 49.4226 8.29777 48.7114 7.58852C48.0051 6.87454 47.6519 5.89342 47.6519 4.64514C47.6519 3.36377 47.9807 2.35664 48.6384 1.62375C49.296 0.890858 50.1996 0.524414 51.3492 0.524414C52.4161 0.524414 53.2588 0.838847 53.8774 1.46771C54.4961 2.09658 54.8054 2.96186 54.8054 4.06356V4.9643H49.4202C49.4446 5.72556 49.6565 6.31187 50.0559 6.72324C50.4554 7.12987 51.018 7.33319 51.7438 7.33319C52.2212 7.33319 52.6645 7.29064 53.0737 7.20553C53.4877 7.11569 53.931 6.96911 54.4035 6.76579V8.12046C53.9846 8.31432 53.5608 8.45144 53.1321 8.53182C52.7035 8.6122 52.2139 8.65239 51.6634 8.65239ZM51.3492 1.78687C50.8037 1.78687 50.3652 1.95473 50.034 2.29044C49.7076 2.62615 49.5128 3.11553 49.4494 3.75858H53.1175C53.1078 3.1108 52.947 2.62142 52.6353 2.29044C52.3235 1.95473 51.8948 1.78687 51.3492 1.78687Z" fill="white"/>
<path d="M60.0153 8.65239C58.7926 8.65239 57.8622 8.30722 57.224 7.61689C56.5908 6.92183 56.2741 5.92652 56.2741 4.63096C56.2741 3.31176 56.6054 2.29753 57.2679 1.58828C57.9352 0.879037 58.8973 0.524414 60.1541 0.524414C61.0066 0.524414 61.7738 0.678084 62.4558 0.985425L61.937 2.3259C61.2112 2.05166 60.612 1.91454 60.1395 1.91454C58.7414 1.91454 58.0424 2.81528 58.0424 4.61677C58.0424 5.49624 58.2153 6.1582 58.5612 6.60267C58.9119 7.0424 59.4234 7.26227 60.0957 7.26227C60.8605 7.26227 61.5838 7.07786 62.2658 6.70905V8.16301C61.9589 8.33796 61.6301 8.46326 61.2794 8.53891C60.9335 8.61456 60.5122 8.65239 60.0153 8.65239Z" fill="white"/>
<path d="M70.2377 0.666264V1.97128H67.6072V8.51054H65.8828V1.97128H63.2523V0.666264H70.2377Z" fill="white"/>
<path d="M78.8087 2.67343C78.8087 3.60018 78.251 4.16049 77.1355 4.35435V4.41109C77.759 4.48202 78.2364 4.67351 78.5676 4.98558C78.8989 5.29765 79.0645 5.70192 79.0645 6.19839C79.0645 6.94074 78.7722 7.51287 78.1877 7.91477C77.608 8.31195 76.7628 8.51054 75.6521 8.51054H71.7941V0.666264H75.6375C77.7517 0.666264 78.8087 1.33532 78.8087 2.67343ZM77.3035 6.0991C77.3035 5.72083 77.1525 5.45368 76.8505 5.29765C76.5485 5.13689 76.0954 5.05651 75.4914 5.05651H73.5112V7.27645H75.5352C76.7141 7.27645 77.3035 6.884 77.3035 6.0991ZM77.0916 2.81528C77.0916 2.50321 76.965 2.27862 76.7116 2.1415C76.4632 1.99965 76.0906 1.92872 75.5937 1.92872H73.5112V3.81532H75.3379C75.9128 3.81532 76.3487 3.7444 76.6459 3.60255C76.943 3.45597 77.0916 3.19355 77.0916 2.81528Z" fill="white"/>
<path d="M84.3693 8.65239C83.1125 8.65239 82.1285 8.29777 81.4173 7.58852C80.711 6.87454 80.3578 5.89342 80.3578 4.64514C80.3578 3.36377 80.6866 2.35664 81.3443 1.62375C82.0019 0.890858 82.9055 0.524414 84.0551 0.524414C85.1219 0.524414 85.9647 0.838847 86.5833 1.46771C87.202 2.09658 87.5113 2.96186 87.5113 4.06356V4.9643H82.1261C82.1505 5.72556 82.3624 6.31187 82.7618 6.72324C83.1612 7.12987 83.7239 7.33319 84.4497 7.33319C84.9271 7.33319 85.3704 7.29064 85.7796 7.20553C86.1936 7.11569 86.6369 6.96911 87.1094 6.76579V8.12046C86.6905 8.31432 86.2667 8.45144 85.838 8.53182C85.4093 8.6122 84.9198 8.65239 84.3693 8.65239ZM84.0551 1.78687C83.5096 1.78687 83.0711 1.95473 82.7399 2.29044C82.4135 2.62615 82.2187 3.11553 82.1553 3.75858H85.8234C85.8137 3.1108 85.6529 2.62142 85.3412 2.29044C85.0294 1.95473 84.6007 1.78687 84.0551 1.78687Z" fill="white"/>
<path d="M91.1794 0.666264V3.81532H94.9863V0.666264H96.7035V8.51054H94.9863V5.12743H91.1794V8.51054H89.4623V0.666264H91.1794Z" fill="white"/>
<path d="M100.883 0.666264V3.81532H104.69V0.666264H106.407V8.51054H104.69V5.12743H100.883V8.51054H99.1659V0.666264H100.883Z" fill="white"/>
<path d="M113.926 8.51054L113.583 7.4183H113.524C113.134 7.89586 112.742 8.22211 112.348 8.39706C111.953 8.56728 111.446 8.65239 110.828 8.65239C110.034 8.65239 109.413 8.44434 108.965 8.02825C108.521 7.61216 108.3 7.02349 108.3 6.26223C108.3 5.45368 108.609 4.84373 109.228 4.43237C109.846 4.021 110.789 3.79641 112.055 3.75858L113.451 3.71603V3.29757C113.451 2.79637 113.329 2.42283 113.086 2.17696C112.847 1.92636 112.474 1.80106 111.968 1.80106C111.554 1.80106 111.157 1.86016 110.777 1.97837C110.397 2.09658 110.031 2.23606 109.681 2.39683L109.125 1.20529C109.564 0.983061 110.044 0.815206 110.565 0.701726C111.086 0.583518 111.578 0.524414 112.041 0.524414C113.069 0.524414 113.843 0.741916 114.364 1.17692C114.89 1.61193 115.153 2.29517 115.153 3.22665V8.51054H113.926ZM111.368 7.37575C111.992 7.37575 112.491 7.20789 112.866 6.87218C113.246 6.53174 113.436 6.05655 113.436 5.44659V4.76571L112.399 4.80827C111.59 4.83664 111.001 4.96903 110.63 5.20545C110.265 5.43714 110.082 5.79412 110.082 6.27641C110.082 6.62631 110.19 6.89819 110.404 7.09205C110.618 7.28118 110.94 7.37575 111.368 7.37575Z" fill="white"/>
<path d="M118.376 8.51054H116.454L118.705 5.29765C118.159 5.14634 117.73 4.87683 117.419 4.48911C117.107 4.09666 116.951 3.61201 116.951 3.03515C116.951 2.2928 117.224 1.71359 117.769 1.29749C118.315 0.876674 119.06 0.666264 120.005 0.666264H123.688V8.51054H121.964V5.48915H120.334L118.376 8.51054ZM118.624 3.04934C118.624 3.45124 118.78 3.75385 119.092 3.95717C119.409 4.15576 119.832 4.25506 120.363 4.25506H121.964V1.92872H120.093C119.625 1.92872 119.262 2.02565 119.004 2.21952C118.751 2.41338 118.624 2.68998 118.624 3.04934Z" fill="white"/>
<path d="M135.255 0.666264V1.97128H131.748V8.51054H130.03V0.666264H135.255Z" fill="white"/>
<path d="M141.868 8.51054L141.524 7.4183H141.466C141.076 7.89586 140.684 8.22211 140.289 8.39706C139.895 8.56728 139.388 8.65239 138.77 8.65239C137.976 8.65239 137.354 8.44434 136.906 8.02825C136.463 7.61216 136.241 7.02349 136.241 6.26223C136.241 5.45368 136.551 4.84373 137.169 4.43237C137.788 4.021 138.731 3.79641 139.997 3.75858L141.393 3.71603V3.29757C141.393 2.79637 141.271 2.42283 141.027 2.17696C140.789 1.92636 140.416 1.80106 139.909 1.80106C139.495 1.80106 139.098 1.86016 138.718 1.97837C138.338 2.09658 137.973 2.23606 137.622 2.39683L137.067 1.20529C137.505 0.983061 137.985 0.815206 138.506 0.701726C139.028 0.583518 139.52 0.524414 139.982 0.524414C141.01 0.524414 141.785 0.741916 142.306 1.17692C142.832 1.61193 143.095 2.29517 143.095 3.22665V8.51054H141.868ZM139.31 7.37575C139.934 7.37575 140.433 7.20789 140.808 6.87218C141.188 6.53174 141.378 6.05655 141.378 5.44659V4.76571L140.341 4.80827C139.532 4.83664 138.942 4.96903 138.572 5.20545C138.207 5.43714 138.024 5.79412 138.024 6.27641C138.024 6.62631 138.131 6.89819 138.346 7.09205C138.56 7.28118 138.882 7.37575 139.31 7.37575Z" fill="white"/>
<path d="M152.134 8.51054H150.402V1.97128H148.174C148.037 3.65456 147.852 4.96903 147.618 5.9147C147.389 6.86036 147.087 7.55069 146.712 7.9857C146.342 8.4207 145.86 8.63821 145.265 8.63821C144.89 8.63821 144.576 8.58619 144.323 8.48217V7.17716C144.503 7.24335 144.683 7.27645 144.864 7.27645C145.36 7.27645 145.75 6.73506 146.033 5.65227C146.32 4.56476 146.544 2.90276 146.705 0.666264H152.134V8.51054Z" fill="white"/>
<path d="M158.126 8.65239C156.869 8.65239 155.885 8.29777 155.174 7.58852C154.467 6.87454 154.114 5.89342 154.114 4.64514C154.114 3.36377 154.443 2.35664 155.101 1.62375C155.758 0.890858 156.662 0.524414 157.811 0.524414C158.878 0.524414 159.721 0.838847 160.34 1.46771C160.958 2.09658 161.268 2.96186 161.268 4.06356V4.9643H155.882C155.907 5.72556 156.119 6.31187 156.518 6.72324C156.918 7.12987 157.48 7.33319 158.206 7.33319C158.683 7.33319 159.127 7.29064 159.536 7.20553C159.95 7.11569 160.393 6.96911 160.866 6.76579V8.12046C160.447 8.31432 160.023 8.45144 159.594 8.53182C159.166 8.6122 158.676 8.65239 158.126 8.65239ZM157.811 1.78687C157.266 1.78687 156.827 1.95473 156.496 2.29044C156.17 2.62615 155.975 3.11553 155.912 3.75858H159.58C159.57 3.1108 159.409 2.62142 159.097 2.29044C158.786 1.95473 158.357 1.78687 157.811 1.78687Z" fill="white"/>
<path d="M167.318 8.65239C166.295 8.65239 165.501 8.2954 164.936 7.58143H164.833C164.902 8.24339 164.936 8.6453 164.936 8.78715V12H163.219V0.666264H164.607C164.646 0.812841 164.726 1.16274 164.848 1.71595H164.936C165.472 0.921592 166.275 0.524414 167.347 0.524414C168.355 0.524414 169.14 0.879037 169.7 1.58828C170.265 2.29753 170.547 3.29284 170.547 4.57422C170.547 5.85559 170.26 6.85563 169.685 7.57434C169.115 8.29304 168.326 8.65239 167.318 8.65239ZM166.901 1.88617C166.219 1.88617 165.72 2.08003 165.403 2.46775C165.092 2.85547 164.936 3.47488 164.936 4.32598V4.57422C164.936 5.52934 165.092 6.22204 165.403 6.65231C165.715 7.07786 166.224 7.29064 166.931 7.29064C167.525 7.29064 167.983 7.05422 168.304 6.58139C168.626 6.10856 168.786 5.43477 168.786 4.56003C168.786 3.68057 168.626 3.01624 168.304 2.56705C167.988 2.11313 167.52 1.88617 166.901 1.88617Z" fill="white"/>
<path d="M176.072 8.65239C174.815 8.65239 173.831 8.29777 173.119 7.58852C172.413 6.87454 172.06 5.89342 172.06 4.64514C172.06 3.36377 172.389 2.35664 173.046 1.62375C173.704 0.890858 174.608 0.524414 175.757 0.524414C176.824 0.524414 177.667 0.838847 178.285 1.46771C178.904 2.09658 179.213 2.96186 179.213 4.06356V4.9643H173.828C173.853 5.72556 174.065 6.31187 174.464 6.72324C174.863 7.12987 175.426 7.33319 176.152 7.33319C176.629 7.33319 177.073 7.29064 177.482 7.20553C177.896 7.11569 178.339 6.96911 178.812 6.76579V8.12046C178.393 8.31432 177.969 8.45144 177.54 8.53182C177.112 8.6122 176.622 8.65239 176.072 8.65239ZM175.757 1.78687C175.212 1.78687 174.773 1.95473 174.442 2.29044C174.116 2.62615 173.921 3.11553 173.857 3.75858H177.526C177.516 3.1108 177.355 2.62142 177.043 2.29044C176.732 1.95473 176.303 1.78687 175.757 1.78687Z" fill="white"/>
<path d="M181.99 8.51054H180.068L182.319 5.29765C181.773 5.14634 181.345 4.87683 181.033 4.48911C180.721 4.09666 180.565 3.61201 180.565 3.03515C180.565 2.2928 180.838 1.71359 181.384 1.29749C181.929 0.876674 182.675 0.666264 183.62 0.666264H187.302V8.51054H185.578V5.48915H183.948L181.99 8.51054ZM182.239 3.04934C182.239 3.45124 182.394 3.75385 182.706 3.95717C183.023 4.15576 183.447 4.25506 183.978 4.25506H185.578V1.92872H183.707C183.24 1.92872 182.877 2.02565 182.619 2.21952C182.365 2.41338 182.239 2.68998 182.239 3.04934Z" fill="white"/>
</svg>
